<svg width="3591" height="747" viewBox="0 0 3591 747" fill="none" xmlns="http://www.w3.org/2000/svg">
<path d="M799.211 489.319C802.961 485.359 805.071 483.249 807.061 481.029C861.991 419.729 916.971 358.469 971.781 297.069C978.861 289.129 985.521 280.739 991.611 272.019C996.161 265.519 999.531 258.179 1003.32 251.159C1004.26 249.419 1004.89 247.489 1005.53 245.599C1010.21 231.819 1006.45 223.319 992.951 217.559C982.711 213.189 971.831 211.549 960.841 210.739C948.881 209.849 936.891 209.279 924.921 208.499C923.001 208.369 921.101 207.859 919.111 207.509C918.011 202.239 917.751 197.399 919.331 192.309C921.111 192.049 922.731 191.609 924.351 191.609C997.661 191.579 1070.96 191.579 1144.12 191.579C1148.01 196.449 1145.93 201.569 1147.15 206.649C1144.61 207.369 1142.82 208.139 1140.96 208.359C1134.67 209.089 1128.37 209.869 1122.06 210.169C1096.28 211.409 1074.17 221.289 1055.75 239.019C1036.07 257.969 1016.33 276.919 997.701 296.869C972.461 323.889 948.241 351.869 923.601 379.459C922.511 380.679 921.631 382.089 920.451 383.679C921.561 385.799 922.461 387.919 923.701 389.819C977.881 472.609 1032.04 555.409 1086.33 638.129C1099.15 657.659 1114.02 675.659 1128.97 693.569C1141.49 708.569 1158.01 715.779 1177.41 715.319C1191.04 714.999 1204.64 713.399 1218.26 712.349C1219.25 712.269 1220.24 712.089 1221.22 711.899C1246.35 706.789 1261.04 691.589 1264.72 666.159C1266.01 657.289 1266.79 648.259 1266.8 639.299C1266.91 521.019 1266.82 402.739 1266.83 284.449C1266.83 272.729 1265.42 261.199 1262.96 249.769C1258.77 230.309 1246.85 217.909 1227.8 212.829C1219.16 210.529 1210.15 209.549 1201.25 208.309C1195.36 207.489 1189.39 207.269 1183.09 206.759C1182.62 202.889 1182.1 199.659 1181.89 196.399C1181.74 194.149 1183.1 192.449 1185.22 192.009C1188.45 191.339 1191.77 190.819 1195.07 190.749C1222.06 190.159 1249.06 189.369 1276.05 189.269C1302.38 189.169 1328.71 189.789 1355.03 190.159C1358.63 190.209 1362.22 190.649 1366.05 190.919C1367.72 195.519 1367.38 199.859 1367.39 204.099C1367.46 222.429 1367.39 240.749 1367.39 259.079C1367.39 262.679 1367.39 266.279 1367.39 269.659C1369.79 270.489 1370.29 269.129 1370.82 267.939C1374.1 260.659 1377.03 253.199 1380.67 246.099C1399.19 209.989 1429.01 189.369 1468.76 182.719C1487.58 179.569 1506.52 178.739 1525.55 180.559C1535.85 181.539 1545.99 183.369 1555.92 186.339C1566.57 189.529 1576.29 194.539 1585.16 201.189C1606.54 217.249 1614.89 238.889 1612.29 265.109C1611.9 269.069 1611.18 273.039 1610.19 276.899C1605.48 295.269 1594.77 309.099 1578.29 318.509C1566.82 325.059 1554.38 328.669 1541.37 330.109C1533.44 330.989 1525.4 330.899 1517.41 331.149C1516.16 331.189 1514.89 330.669 1513.34 330.359C1511.89 323.299 1511.64 316.359 1510.92 309.449C1509.89 299.529 1508.81 289.579 1507.01 279.779C1505.13 269.569 1500.95 260.049 1495.91 250.999C1476.1 215.469 1425.86 212.599 1402.05 245.539C1390.53 261.479 1383.77 279.439 1379.29 298.399C1374.6 318.229 1372.13 338.329 1370.88 358.669C1368.85 391.629 1368.95 424.599 1368.93 457.589C1368.89 517.559 1368.93 577.539 1368.89 637.509C1368.89 649.539 1369.56 661.489 1372.84 673.139C1373.83 676.649 1375 680.139 1376.44 683.489C1382.67 698.009 1393.64 707.059 1409.05 710.229C1424.4 713.389 1439.97 715.059 1455.67 715.329C1457.61 715.359 1459.54 715.689 1461.76 715.899C1463.54 720.609 1463.05 725.179 1463.16 730.249C1460.87 731.129 1458.84 732.359 1456.69 732.629C1452.74 733.119 1448.72 733.179 1444.72 733.179C1341.72 733.179 1238.72 733.149 1135.73 733.089C1116.05 733.079 1096.41 732.349 1077.04 728.379C1066.26 726.169 1055.68 723.289 1045.5 719.019C1028.27 711.809 1013.63 701.089 1001.53 686.889C992.001 675.709 983.611 663.689 975.731 651.309C937.281 590.879 898.841 530.459 860.371 470.039C858.251 466.719 855.971 463.509 853.331 459.609C851.681 460.999 850.361 461.859 849.341 462.999C834.401 479.589 819.581 496.299 804.521 512.779C800.431 517.259 798.721 522.059 798.761 528.109C799.001 566.089 799.001 604.079 799.061 642.059C799.081 653.119 800.751 663.979 803.321 674.679C807.761 693.139 819.231 705.239 837.601 710.039C846.251 712.299 855.251 713.309 864.141 714.579C870.021 715.419 875.971 715.709 882.031 716.259C883.341 721.759 883.061 726.579 882.361 732.019C879.381 732.209 876.801 732.499 874.221 732.529C777.221 733.579 615.921 732.949 606.931 731.429C606.071 726.369 606.081 721.179 607.061 715.399C609.281 715.129 611.501 714.749 613.741 714.599C624.371 713.849 635.061 713.629 645.611 712.279C652.131 711.449 658.661 709.509 664.801 707.099C677.921 701.929 686.951 692.399 691.141 678.879C693.001 672.889 694.221 666.599 694.881 660.359C695.581 653.759 695.381 647.049 695.381 640.389C695.401 481.459 695.391 322.529 695.401 163.589C695.401 141.599 695.451 119.609 695.431 97.6188C695.431 88.9488 695.431 80.2188 692.911 71.8488C691.201 66.1488 689.371 60.3188 686.491 55.1588C678.931 41.6188 666.531 34.3688 651.541 33.1888C637.361 32.0788 625.621 38.3588 617.321 50.1588C611.241 58.7988 607.991 68.5988 607.041 79.0288C606.161 88.6388 605.521 98.2988 605.521 107.939C605.421 245.549 605.441 383.149 605.471 520.759C605.471 539.789 604.631 558.719 600.951 577.439C593.661 614.519 578.561 647.759 552.371 675.459C532.811 696.149 509.271 710.979 483.101 721.779C458.611 731.889 433.061 737.729 406.741 740.589C378.141 743.699 349.471 743.689 320.861 741.999C285.461 739.909 250.751 733.759 217.571 720.669C210.771 717.979 204.011 715.079 197.511 711.739C149.331 687.019 119.061 647.919 105.011 595.939C97.9211 569.719 95.3111 542.899 95.1311 515.839C94.9011 481.519 94.951 447.199 94.941 412.879C94.921 308.259 94.931 203.639 94.941 99.0088C94.941 90.6688 94.8111 82.3688 93.1411 74.1388C89.1811 54.5588 78.4211 40.9588 59.0311 34.7888C51.7111 32.4588 44.2711 30.6188 36.5411 30.4288C28.2111 30.2188 19.8811 30.1488 11.5511 29.9688C8.28109 29.8988 5.0111 29.6988 1.9911 29.5688C1.2411 28.0388 0.531098 27.1888 0.431098 26.2788C-0.838902 15.0988 0.111088 13.0088 11.4211 12.8688C41.7511 12.4888 72.0811 11.8188 102.411 11.8388C168.071 11.8888 233.731 12.2688 299.391 12.5988C303.631 12.6188 308.071 11.9188 312.311 14.3988C312.521 15.9788 312.891 17.5987 312.901 19.2087C312.901 21.8287 312.661 24.4488 312.521 27.1388C308.401 29.6288 304.111 29.8088 299.801 29.9188C292.801 30.0888 285.761 29.8788 278.821 30.5988C271.571 31.3488 264.281 32.4888 257.241 34.3588C235.831 40.0488 224.201 54.5988 221.201 76.1588C220.101 84.0488 219.521 92.0888 219.521 100.059C219.421 244.999 219.411 389.939 219.481 534.869C219.491 560.559 221.091 586.159 227.001 611.279C228.901 619.369 231.061 627.449 233.911 635.239C249.621 678.069 280.061 704.459 324.451 714.329C352.941 720.659 381.811 721.919 410.921 718.929C437.371 716.209 462.631 709.439 486.631 698.099C536.571 674.499 567.631 635.489 580.771 582.029C585.401 563.179 587.431 544.029 587.361 524.609C587.241 491.959 587.371 459.299 587.381 426.649C587.411 317.359 587.431 208.079 587.431 98.7888C587.431 92.7988 587.321 86.7888 586.971 80.8088C586.541 73.4288 584.621 66.3888 581.431 59.6888C576.331 48.9788 568.311 41.3188 557.351 36.8788C548.661 33.3588 539.591 31.0588 530.211 30.6488C519.891 30.1888 509.551 30.2388 499.231 29.9788C495.961 29.8988 492.561 30.6788 489.191 28.7388C487.691 24.0188 488.261 19.0988 488.771 13.6788C490.661 13.3288 492.511 12.8388 494.381 12.6788C496.361 12.4988 498.381 12.6288 500.381 12.6288C595.711 12.6288 691.041 12.6288 786.381 12.6288H797.751C798.201 14.9588 798.701 16.8088 798.871 18.6788C799.051 20.6588 798.931 22.6688 798.921 24.6688C798.851 175.599 798.781 326.539 798.731 477.469C798.731 480.679 798.981 483.879 799.211 489.299V489.319Z" fill="#F5F5F5"/>
<path d="M2811.59 720.397V728.607C2810.49 729.027 2809.59 729.607 2808.66 729.667C2806.01 729.847 2803.34 729.867 2800.67 729.867C2748.68 729.867 2696.69 729.877 2644.7 729.857C2641.43 729.857 2638.15 729.607 2634.79 729.467C2632.73 725.667 2633.42 721.947 2633.41 718.407C2633.34 689.757 2633.36 661.107 2633.36 632.457C2633.36 491.207 2633.36 349.967 2633.37 208.717C2633.37 204.407 2633.37 200.097 2633.37 195.367C2635.7 194.887 2637.55 194.177 2639.41 194.167C2666.07 194.097 2692.73 194.097 2719.39 194.137C2721.31 194.137 2723.23 194.487 2725.76 194.737C2726.5 210.487 2726.03 225.737 2726.11 240.967C2726.19 255.897 2726.13 270.827 2726.13 285.717C2729.06 285.997 2729.27 284.177 2729.87 282.687C2733.98 272.517 2737.44 262.007 2742.38 252.247C2759.25 218.967 2786.55 199.037 2822.74 190.527C2848.3 184.527 2874.12 182.857 2900.17 184.847C2922.53 186.557 2944.33 190.987 2964.96 200.227C2994.41 213.417 3016.19 234.497 3030.47 263.377C3039.56 281.767 3044.74 301.337 3047.96 321.487C3051.12 341.267 3052.18 361.197 3052.16 381.217C3052.08 462.837 3052.15 544.447 3052.11 626.067C3052.11 641.097 3052.87 656.047 3056.03 670.767C3057.21 676.267 3058.82 681.767 3060.95 686.967C3067.32 702.457 3078.46 712.857 3095.14 716.157C3104.25 717.957 3113.59 718.657 3122.84 719.777C3125.45 720.087 3128.09 720.107 3130.69 720.257C3132.69 723.257 3132.41 726.007 3131.02 728.917C3130.08 729.197 3129.14 729.717 3128.21 729.727C3072.89 729.767 3017.57 729.767 2962.25 729.737C2961.32 729.737 2960.38 729.247 2958.82 728.807C2958.61 727.007 2958.26 725.127 2958.19 723.227C2958.08 720.237 2958.15 717.227 2958.15 714.237C2958.15 592.307 2958.12 470.387 2958.18 348.457C2958.18 330.757 2957.2 313.177 2954.02 295.747C2951.01 279.287 2946.04 263.487 2938.83 248.347C2926.47 222.397 2906.12 206.817 2878.05 201.397C2855.78 197.097 2833.63 197.897 2811.81 204.417C2797.5 208.697 2785.05 216.087 2774.41 226.637C2754.65 246.217 2742.83 270.087 2736.12 296.747C2730.08 320.767 2727.26 345.187 2727.36 369.957C2727.42 386.617 2727.36 403.267 2727.36 419.927C2727.36 488.217 2727.36 556.507 2727.36 624.797C2727.36 638.457 2727.5 652.117 2729.95 665.627C2731.5 674.177 2733.45 682.577 2737.77 690.247C2744.79 702.697 2754.73 711.317 2768.79 715.167C2779.82 718.187 2791.07 719.037 2802.37 719.797C2805.29 719.987 2808.22 720.167 2811.57 720.377L2811.59 720.397Z" fill="#F5F5F5"/>
<path d="M2106.54 716.289V730.919C2105.88 731.519 2105.65 731.779 2105.37 731.949C2105.1 732.109 2104.76 732.259 2104.46 732.259C2054.48 732.369 2004.5 732.459 1954.52 732.529C1953.22 732.529 1951.92 732.229 1950.76 732.079C1948.39 729.299 1949.24 726.179 1949.23 723.289C1949.15 702.299 1949.2 681.319 1949.17 660.329C1949.17 657.119 1948.96 653.899 1948.82 649.709C1945.3 652.099 1944.85 655.199 1943.73 657.719C1936.06 674.969 1925.65 690.269 1911.84 703.229C1892.36 721.499 1869.26 732.639 1843.32 738.229C1819.36 743.389 1795.18 745.139 1770.8 742.199C1746.1 739.219 1722.56 732.229 1700.71 720.209C1665.75 700.969 1643.77 671.789 1634.75 632.939C1628.32 605.249 1628.05 577.519 1634.64 549.789C1642.83 515.319 1662.17 488.899 1692.18 470.219C1711.3 458.319 1732.1 450.399 1753.77 444.719C1778.96 438.109 1804.58 433.789 1830.58 432.409C1862.85 430.699 1895.15 429.629 1927.44 428.189C1931.68 427.999 1936.13 428.819 1940.58 426.179C1940.67 423.419 1940.91 420.469 1940.86 417.519C1940.2 378.219 1939.65 338.919 1938.74 299.619C1938.33 281.909 1935.21 264.509 1930.41 247.469C1929.06 242.699 1927.11 238.029 1924.93 233.559C1917.57 218.419 1905.74 208.049 1889.78 202.929C1882.87 200.709 1875.54 199.239 1868.31 198.729C1858.04 198.009 1847.67 198.139 1837.37 198.579C1831.44 198.839 1825.46 200.029 1819.68 201.519C1800.81 206.389 1787.24 217.829 1778.8 235.409C1773.41 246.649 1770 258.489 1768.96 270.829C1767.27 290.729 1766.18 310.679 1764.86 330.619C1764.62 334.269 1764.62 337.949 1764.2 341.589C1763.83 344.829 1762.23 346.289 1758.85 346.329C1737.95 346.609 1717.6 343.909 1698.77 334.139C1686.29 327.659 1678.11 317.509 1674.71 303.789C1671.29 290.009 1670.96 276.079 1673.92 262.199C1677.38 246.019 1685.79 232.669 1698.17 221.789C1709.56 211.779 1722.66 204.589 1736.56 198.779C1753.88 191.539 1772.07 187.599 1790.53 184.649C1807.66 181.909 1824.9 180.279 1842.23 179.779C1873.33 178.889 1904.16 181.059 1934.43 188.709C1946.08 191.659 1957.21 196.059 1967.99 201.389C1998.83 216.649 2019.51 240.759 2030.8 273.099C2035.87 287.629 2038.93 302.619 2040.79 317.849C2042.5 331.749 2042.99 345.719 2042.98 359.729C2042.92 454.999 2042.92 550.269 2043.06 645.539C2043.07 655.499 2043.51 665.539 2044.75 675.409C2047.89 700.449 2059.98 711.819 2085.07 714.249C2087.72 714.509 2090.4 714.519 2093.05 714.779C2097.33 715.199 2101.6 715.729 2106.53 716.289H2106.54ZM1940.46 446.979C1937.64 446.839 1935.98 446.629 1934.34 446.709C1923.03 447.239 1911.71 447.659 1900.41 448.429C1881.48 449.719 1862.52 450.839 1843.65 452.789C1829.75 454.229 1816.07 457.259 1802.95 462.419C1781.4 470.889 1764.55 484.779 1753.26 505.139C1747.56 515.409 1743.69 526.389 1741.22 537.819C1733.91 571.679 1733.07 605.849 1737.39 640.129C1738.97 652.689 1741.93 665.019 1747.02 676.709C1758.26 702.499 1778.25 717.249 1805.85 720.209C1848.47 724.789 1883.8 710.139 1910.55 676.419C1930.45 651.329 1940.61 622.439 1940.84 590.419C1941.17 545.129 1940.96 499.839 1940.95 454.549C1940.95 452.289 1940.67 450.029 1940.46 446.969V446.979Z" fill="#F5F5F5"/>
<path d="M3590.2 452.368H3253.71C3253.25 454.808 3252.54 456.698 3252.61 458.548C3253.41 480.508 3254.13 502.478 3255.26 524.428C3256.5 548.398 3259.55 572.178 3264.08 595.748C3267.41 613.078 3271.28 630.288 3277.56 646.848C3281.35 656.838 3286.01 666.388 3291.41 675.608C3306.17 700.848 3327.74 716.908 3356.29 723.178C3382.74 728.988 3409.29 729.178 3435.38 721.488C3479.41 708.508 3509.04 680.108 3523.87 636.578C3526.23 629.658 3527.91 622.508 3529.91 615.468C3530.9 611.998 3531.9 608.528 3532.93 604.908C3542.07 604.638 3548.99 608.108 3554.09 614.788C3561.46 624.448 3564.84 635.378 3562.72 647.598C3559.73 664.888 3551.48 679.518 3539.51 692.098C3526.5 705.768 3511.05 716.128 3494.26 724.548C3474.99 734.208 3454.44 739.468 3433.16 742.258C3409.96 745.298 3386.67 746.208 3363.35 744.338C3329.47 741.618 3297.05 733.418 3266.91 717.318C3226.98 695.988 3198.52 663.798 3178.66 623.588C3164.68 595.268 3156.32 565.248 3151.83 534.048C3146.83 499.268 3146.07 464.338 3148.33 429.378C3150.64 393.748 3155.98 358.558 3167.73 324.618C3176.08 300.518 3187.6 278.118 3203.21 257.888C3233.02 219.258 3272.24 195.978 3319.91 186.708C3347.21 181.398 3374.77 179.808 3402.47 182.798C3431.23 185.898 3458.64 193.668 3484.06 207.748C3517.53 226.278 3541.8 253.398 3558.47 287.578C3571.31 313.898 3578.58 341.788 3582.08 370.758C3584.73 392.628 3585.56 414.568 3585.1 436.578C3584.99 441.758 3583.8 447.218 3590.19 452.368H3590.2ZM3253.06 433.638C3257.85 433.788 3261.45 433.988 3265.05 433.988C3312.67 434.008 3360.28 433.998 3407.9 433.998C3427.21 433.998 3446.53 434.028 3465.84 433.968C3468.73 433.968 3471.63 433.568 3474.92 433.318C3475.19 430.428 3475.55 428.188 3475.58 425.928C3476.11 387.588 3474.2 349.408 3467.82 311.548C3465.16 295.798 3461.76 280.208 3456.18 265.168C3451.41 252.298 3445.41 240.108 3436.76 229.358C3425.53 215.398 3411.3 206.098 3393.75 202.128C3379.25 198.848 3364.61 199.068 3350.1 201.628C3327 205.698 3308.99 218.058 3295.29 236.908C3286.8 248.588 3280.58 261.418 3276 275.058C3268.04 298.808 3263.47 323.308 3259.94 348.038C3256.22 374.088 3254.33 400.298 3253.07 426.568C3252.98 428.518 3253.06 430.478 3253.06 433.628V433.638Z" fill="#F5F5F5"/>
<path d="M2511.04 494.878C2525.06 493.728 2538.6 500.758 2544.2 511.708C2547.9 518.928 2549.71 526.648 2550.12 534.748C2551.36 559.238 2546.73 582.608 2535.4 604.298C2522.71 628.608 2507.58 651.378 2487.53 670.378C2447.1 708.708 2399.91 733.878 2344.52 742.798C2317.59 747.138 2290.76 747.168 2264.18 740.418C2238.93 733.998 2216.12 723.058 2196.9 704.958C2175.15 684.478 2162.76 659.328 2158.06 630.168C2155.82 616.308 2155.45 602.398 2157.42 588.378C2159.98 570.198 2166.45 553.698 2176.8 538.598C2191.65 516.938 2209.81 498.478 2231.02 483.088C2260.47 461.718 2291.4 442.838 2324.67 427.888C2350.85 416.118 2375.83 402.188 2399.51 385.928C2418.86 372.638 2436.38 357.378 2450.87 338.828C2460.15 326.948 2467.89 314.178 2472.75 299.798C2475.87 290.558 2477.77 281.108 2476.9 271.338C2475.48 255.448 2468.69 241.978 2457.53 230.708C2444.51 217.548 2428.34 209.988 2410.83 204.898C2407.65 203.978 2404.43 203.188 2400.57 202.168C2401.76 200.098 2402.43 198.238 2403.66 196.908C2409.87 190.178 2417.77 187.088 2426.81 186.788C2437.63 186.428 2448.15 188.288 2458.01 192.608C2482.3 203.248 2501.07 219.998 2513.53 243.658C2522.3 260.308 2523.64 277.948 2521.16 296.128C2518.65 314.528 2511.92 331.438 2502.66 347.478C2483.26 381.078 2456.74 407.688 2424.01 428.328C2402.57 441.848 2380.05 453.418 2357.39 464.678C2332.04 477.288 2306.89 490.248 2282.55 504.738C2264.11 515.718 2247.58 529.008 2232.87 544.678C2212.27 566.628 2204.79 592.348 2209.28 621.948C2211.41 636.008 2215.58 649.188 2223.93 660.798C2233.28 673.798 2245.65 683.238 2259.88 690.298C2275.05 697.818 2291.34 701.268 2308.08 702.058C2378.39 705.358 2461.99 670.588 2502.42 587.448C2509.11 573.688 2512.6 559.308 2513.84 544.298C2514.99 530.338 2515.07 516.348 2512.12 502.508C2511.63 500.238 2511.46 497.898 2511.05 494.878H2511.04Z" fill="#F5F5F5"/>
<path d="M2515.82 495.144C2530.87 493.994 2545.4 501.023 2551.41 511.972C2555.38 519.191 2557.32 526.91 2557.76 535.009C2559.09 559.496 2554.12 582.863 2541.97 604.551C2528.35 628.858 2512.11 651.625 2490.59 670.622C2447.21 708.948 2396.57 734.114 2337.13 743.033C2308.23 747.373 2279.44 747.403 2250.91 740.654C2223.82 734.234 2199.34 723.296 2178.71 705.198C2155.37 684.721 2142.08 659.574 2137.03 630.417C2134.63 616.559 2134.23 602.651 2136.35 588.633C2139.09 570.455 2146.04 553.957 2157.14 538.859C2173.08 517.201 2192.57 498.744 2215.33 483.356C2246.93 461.988 2280.12 443.111 2315.83 428.162C2343.92 416.394 2370.73 402.466 2396.14 386.208C2416.9 372.919 2435.7 357.661 2451.25 339.114C2461.21 327.235 2469.52 314.467 2474.73 300.088C2478.08 290.85 2480.12 281.401 2479.19 271.632C2477.66 255.744 2470.38 242.276 2458.4 231.007C2444.43 217.849 2427.08 210.29 2408.29 205.2C2404.87 204.28 2401.42 203.49 2397.28 202.471C2398.55 200.401 2399.27 198.541 2400.59 197.211C2407.26 190.482 2415.73 187.392 2425.43 187.092C2437.05 186.732 2448.34 188.592 2458.92 192.912C2484.98 203.55 2505.12 220.298 2518.5 243.955C2527.91 260.603 2529.35 278.241 2526.68 296.419C2523.99 314.817 2516.77 331.725 2506.83 347.763C2486.01 381.358 2457.55 407.965 2422.43 428.602C2399.42 442.121 2375.26 453.689 2350.94 464.948C2323.73 477.556 2296.75 490.515 2270.63 505.003C2250.84 515.982 2233.1 529.27 2217.31 544.938C2195.21 566.885 2187.18 592.602 2192 622.198C2194.28 636.257 2198.76 649.435 2207.72 661.044C2217.75 674.042 2231.03 683.481 2246.3 690.54C2262.58 698.059 2280.06 701.508 2298.02 702.298C2373.47 705.598 2463.19 670.832 2506.57 587.703C2513.75 573.944 2517.5 559.566 2518.83 544.558C2520.06 530.6 2520.15 516.611 2516.98 502.773C2516.46 500.503 2516.27 498.164 2515.83 495.144H2515.82Z" fill="#F5F5F5"/>
<path d="M2467.57 0.00877918C2478.95 -0.181221 2489.35 2.70878 2498.78 9.06878C2506.51 14.2788 2510.4 21.5688 2511.23 30.7588C2512.67 46.6888 2506.68 59.4788 2494.58 69.4188C2480.94 80.6288 2465.2 87.5188 2447.87 90.8088C2438.97 92.4988 2430.05 93.3188 2421.12 90.9288C2419.84 90.5888 2418.5 90.3888 2417.25 89.9488C2403.87 85.3488 2396.83 75.1887 2397.36 61.0187C2397.67 52.9087 2399.71 45.1488 2403.86 38.1888C2418.24 14.0988 2439.26 0.898779 2467.56 0.00877918H2467.57Z" fill="#F5F5F5"/>
</svg>
